<?xml version="1.0" encoding="UTF-8" standalone="no"?>
<svg
   fill="none"
   viewBox="0 0 24 24"
   stroke-width="1.5"
   stroke="currentColor"
   class="size-6"
   version="1.1"
   id="colorable"
   sodipodi:docname="paint-bucket.svg"
   inkscape:version="1.3.2 (1:1.3.2+202311252150+091e20ef0f)"
   xmlns:inkscape="http://www.inkscape.org/namespaces/inkscape"
   xmlns:sodipodi="http://sodipodi.sourceforge.net/DTD/sodipodi-0.dtd"
   xmlns="http://www.w3.org/2000/svg"
   xmlns:svg="http://www.w3.org/2000/svg">
  <defs
     id="n2" />
  <sodipodi:namedview
     id="n"
     inkscape:showpageshadow="2"
     inkscape:pageopacity="0.0"
     inkscape:pagecheckerboard="0"
     inkscape:deskcolor="#d1d1d1"
     inkscape:zoom="49"
     inkscape:cx="11.265306"
     inkscape:cy="13.081633"
     inkscape:window-width="3380"
     inkscape:window-height="1376"
     inkscape:window-x="0"
     inkscape:window-y="0"
     inkscape:window-maximized="1"
     inkscape:current-layer="svg1" />
  <path
     stroke-linecap="round"
     stroke-linejoin="round"
     d="m 19.796831,11.546231 -9.509583,8.868036 C 9.4840641,21.16306 8.2397676,21.16717 7.4316543,20.423701 L 2.0475548,15.472641 C 1.2390373,14.72961 1.1389578,13.489336 1.817878,12.626282 L 9.859704,2.407303 m 9.937761,9.138238 C 19.114355,10.696017 18.400553,9.871637 17.657477,9.0740361 M 9.859704,2.4073033 c 0.903705,0.6096288 1.784923,1.2519441 2.641906,1.925671 m 5.155867,4.7410618 C 16.063368,7.3634106 14.339629,5.7783511 12.501612,4.3329742"
     id="path1"
     style="stroke-width:1.40086"
     sodipodi:nodetypes="cccccccccccc" />
  <path
     style="fill:none;stroke-width:1.83769;stroke-linecap:round;stroke-dasharray:none"
     d="M 7.8480378,3.6804251 C -0.5920937,-3.5984534 5.4158523,9.1151673 9.7814404,11.83879"
     id="path2" />
  <path
     id="path4"
     style="stroke-width:1.59492;stroke-linecap:round;stroke-linejoin:round"
     d="m 22.584511,18.159823 c 0,2.323416 -1.409713,2.663733 -2.627577,2.663733 -1.217865,0 -2.627575,-0.340317 -2.627575,-2.663733 0,-2.323415 2.627575,-5.750098 2.627575,-5.750098 0,0 2.627577,3.426683 2.627577,5.750098 z"
     sodipodi:nodetypes="ssscs" />
  <path
     style="fill:none;stroke-width:1.65228;stroke-linecap:round;stroke-linejoin:round;stroke-dasharray:none"
     d="m 9.8406543,2.7471199 c 0,0 -0.6253233,1.7365776 3.6328707,5.8750875 4.72639,4.5935456 5.925866,3.3129166 5.925866,3.3129166"
     id="path5"
     sodipodi:nodetypes="csc" />
</svg>
